<?xml version="1.0" encoding="UTF-8"?>
<svg id="_圖層_2" data-name="圖層 2" xmlns="http://www.w3.org/2000/svg" viewBox="0 0 24.85 350">
  <defs>
    <style>
      .cls-1 {
        fill: #3e3a39;
      }
    </style>
  </defs>
  <g id="_圖層_1-2" data-name="圖層 1">
    <g>
      <path class="cls-1" d="M19.18,19.05l-1.61-4.8c1.91-.65,2.86-2.01,2.86-4.11,0-2.23-.72-3.35-2.17-3.35-.58,0-1.06.21-1.46.62-.4.42-.75,1.36-1.04,2.83-.5,2.46-.99,4.26-1.5,5.4-.51,1.14-1.32,2.1-2.44,2.88-1.12.78-2.38,1.17-3.77,1.17-2.18,0-4.06-.84-5.65-2.52-1.59-1.68-2.38-4.16-2.38-7.45,0-2.47.56-4.57,1.69-6.31C2.81,1.7,4.48.55,6.69,0l1.18,5.23c-2.25.59-3.37,2.22-3.37,4.9,0,1.29.25,2.26.75,2.89.5.63,1.1.95,1.79.95s1.25-.29,1.64-.86c.39-.58.75-1.69,1.1-3.33.63-3.07,1.5-5.25,2.6-6.56s2.71-1.96,4.83-1.96,3.95.78,5.42,2.34c1.47,1.56,2.21,3.67,2.21,6.34,0,4.73-1.89,7.77-5.67,9.12Z"/>
      <path class="cls-1" d="M24.48,34.92L.37,42.47v-6.07l4.96-1.48v-7.79l-4.96-1.51v-4.95l24.1,7.73v6.54ZM9.78,28.48v5.11l8.46-2.53-8.46-2.57Z"/>
      <path class="cls-1" d="M24.48,63.61H.37v-4.82l16.28-9.43c-.41.01-.68.02-.81.03-.41.05-.76.07-1.04.07H.37v-4.4h24.1v6.09l-14.22,8.2c.71-.07,1.24-.11,1.61-.11h12.61v4.36Z"/>
      <path class="cls-1" d="M9.92,74.13H.37v-5.69h24.1v10.59c0,1.96-.23,3.52-.68,4.71s-1.29,2.16-2.5,2.94c-1.21.78-2.56,1.17-4.04,1.17-2.9,0-4.97-1.39-6.23-4.18L.37,88.12v-6.24l9.55-3.7v-4.04ZM20.18,74.13h-6.15v3.46c0,1.13.08,1.95.24,2.46.16.51.51.97,1.06,1.37.55.4,1.17.6,1.88.6.67,0,1.27-.2,1.8-.6s.86-.84.98-1.31c.13-.47.19-1.35.19-2.65v-3.34Z"/>
      <path class="cls-1" d="M24.48,97.85H.37v-5.63h24.1v5.63Z"/>
      <path class="cls-1" d="M0,111.74c0-3.25,1.22-5.76,3.66-7.53,2.44-1.77,5.38-2.66,8.84-2.66s6.46.9,8.81,2.7c2.35,1.8,3.53,4.36,3.53,7.69s-1.26,5.9-3.77,7.61c-2.51,1.71-5.39,2.57-8.63,2.57-3.49,0-6.45-.88-8.84-2.65-2.4-1.76-3.6-4.34-3.6-7.73ZM20.24,111.89c0-2.96-2.6-4.44-7.81-4.44s-7.82,1.48-7.82,4.44,2.6,4.3,7.81,4.3,7.82-1.43,7.82-4.3Z"/>
      <path class="cls-1" d="M15.5,154.29l-.37-5.92c3.4-.08,5.1-1.41,5.1-3.98,0-2.95-2.62-4.42-7.86-4.42-3.02,0-5.08.4-6.15,1.2-1.08.8-1.62,1.92-1.62,3.36,0,2.34,1.52,3.76,4.56,4.28l-.34,5.48c-2.89-.35-5.08-1.43-6.58-3.22-1.5-1.8-2.25-3.99-2.25-6.6,0-3.19,1.1-5.78,3.3-7.78,2.2-2,5.25-2.99,9.13-2.99,3.64,0,6.62.97,8.94,2.9,2.32,1.93,3.48,4.57,3.48,7.91,0,5.79-3.11,9.05-9.34,9.78Z"/>
      <path class="cls-1" d="M24.48,176.15H.37v-5.54h9.94v-7.52H.37v-5.54h24.1v5.54h-9.39v7.52h9.39v5.54Z"/>
      <path class="cls-1" d="M24.48,192.83L.37,200.38v-6.07l4.96-1.48v-7.79l-4.96-1.51v-4.95l24.1,7.73v6.54ZM9.78,186.38v5.11l8.46-2.53-8.46-2.57Z"/>
      <path class="cls-1" d="M9.92,208.66H.37v-5.69h24.1v10.6c0,1.95-.23,3.52-.68,4.71s-1.29,2.16-2.5,2.94c-1.21.78-2.56,1.17-4.04,1.17-2.9,0-4.97-1.39-6.23-4.18l-10.66,4.45v-6.24l9.55-3.7v-4.04ZM20.18,208.66h-6.15v3.46c0,1.13.08,1.95.24,2.46.16.51.51.97,1.06,1.37.55.4,1.17.6,1.88.6.67,0,1.27-.2,1.8-.6s.86-.84.98-1.31c.13-.47.19-1.36.19-2.65v-3.33Z"/>
      <path class="cls-1" d="M24.48,238.58L.37,246.13v-6.07l4.96-1.48v-7.79l-4.96-1.51v-4.95l24.1,7.72v6.54ZM9.78,232.14v5.11l8.46-2.53-8.46-2.57Z"/>
      <path class="cls-1" d="M15.5,267.38l-.37-5.92c3.4-.08,5.1-1.41,5.1-3.98,0-2.95-2.62-4.42-7.86-4.42-3.02,0-5.08.4-6.15,1.2-1.08.8-1.62,1.92-1.62,3.36,0,2.33,1.52,3.76,4.56,4.28l-.34,5.48c-2.89-.35-5.08-1.43-6.58-3.22-1.5-1.8-2.25-4-2.25-6.6,0-3.19,1.1-5.78,3.3-7.78,2.2-2,5.25-2.99,9.13-2.99,3.64,0,6.62.97,8.94,2.9,2.32,1.93,3.48,4.57,3.48,7.91,0,5.79-3.11,9.05-9.34,9.78Z"/>
      <path class="cls-1" d="M24.48,285.9h-4.77v-5.97H.37v-5.72h19.34v-6.01h4.77v17.7Z"/>
      <path class="cls-1" d="M19.88,305.54v-11.48h-4.94v9.02h-4.54v-9.02h-5.26v11.48H.37v-17.22h24.1v17.22h-4.59Z"/>
      <path class="cls-1" d="M9.92,314.61H.37v-5.68h24.1v10.59c0,1.96-.23,3.52-.68,4.71s-1.29,2.16-2.5,2.94c-1.21.78-2.56,1.16-4.04,1.16-2.9,0-4.97-1.39-6.23-4.18l-10.66,4.45v-6.24l9.55-3.7v-4.05ZM20.18,314.61h-6.15v3.46c0,1.13.08,1.95.24,2.47.16.51.51.97,1.06,1.37s1.17.6,1.88.6c.67,0,1.27-.2,1.8-.6.53-.4.86-.84.98-1.31.13-.47.19-1.35.19-2.65v-3.34Z"/>
      <path class="cls-1" d="M19.18,349.35l-1.61-4.8c1.91-.64,2.86-2.01,2.86-4.11,0-2.23-.72-3.34-2.17-3.34-.58,0-1.06.21-1.46.62-.4.42-.75,1.36-1.04,2.83-.5,2.46-.99,4.26-1.5,5.4-.51,1.14-1.32,2.1-2.44,2.88-1.12.78-2.38,1.17-3.77,1.17-2.18,0-4.06-.84-5.65-2.52-1.59-1.68-2.38-4.16-2.38-7.45,0-2.47.56-4.57,1.69-6.31,1.12-1.74,2.79-2.88,5.01-3.43l1.18,5.23c-2.25.59-3.37,2.22-3.37,4.9,0,1.29.25,2.26.75,2.89.5.63,1.1.95,1.79.95s1.25-.29,1.64-.87c.39-.58.75-1.69,1.1-3.33.63-3.07,1.5-5.26,2.6-6.56,1.1-1.31,2.71-1.96,4.83-1.96s3.95.78,5.42,2.34c1.47,1.56,2.21,3.67,2.21,6.34,0,4.73-1.89,7.77-5.67,9.12Z"/>
    </g>
  </g>
</svg>